{"title":"Think Like a Man (2012).BRrip.XviD - Italian English.Ac3.5.1.Sub","uid":11849694,"size":1942642664,"categoryP":"video","categoryS":"movies","magnet":"?xt=urn:btih:4dcda018bd3230f38358a39953d22c0e016daeb7&amp;dn=Think+Like+a+Man+%282012%29.BRrip.XviD+-+Italian+English.Ac3.5.1.Sub&amp;tr=udp%3A%2F%2Ftracker.openbittorrent.com%3A80&amp;tr=udp%3A%2F%2Fopen.demonii.com%3A1337&amp;tr=udp%3A%2F%2Ftracker.coppersurfer.tk%3A6969&amp;tr=udp%3A%2F%2Fexodus.desync.com%3A6969","seeders":13,"leechers":5,"uploader":"robbyrs4","files":7,"time":1430059125,"description":"Think Like a Man (2012).BRrip.XviD - Italian English.Ac3.5.1.Sub.Ita.Eng.MIRCrew\n\n[center]\n\n[color=red][b][img]http://s19.postimg.org/9qdjr7p77/Original_release_2.png[/img]\n\n[u]NO FOUND ONLY ORIGINAL RELEASE[/u]\n\nThink Like a Man (2012)\n\n[img]http://extraimago.com/images/2015/04/26/w308e5.jpg[/img]\n\n\n[URL=http://www.imdb.com/title/tt1621045/][IMG]http://www.userlogos.org/files/logos/Sucka/imdb_new.png[/IMG][/URL]  \n\n[img]http://s19.postimg.org/vz5tzn42b/1_scheda.png[/img]\n\nLingua originale \tInglese\nPaese di produzione \tStati Uniti\nAnno \t2012\nDurata \t93 min\nRapporto \t2,35 : 1\nGenere \tcommedia, romantico\nRegia \tTim Story\nSceneggiatura \tKeith Merryman, David A. Newman e Steve Harvey\nMontaggio \tPeter S. Elliot\nMusiche \tChristopher Lennertz\n\n[img]http://s19.postimg.org/q8fnlww2b/1_cast.png[/img]\n\n\n    Michael Ealy: Dominic\n    Meagan Good: Mya\n    Regina Hall: Candace\n    Kevin Hart: Cedric\n    Taraji P. Henson: Lauren\n    Jenifer Lewis: Loretta\n    Romany Malco: Zeke\n    Terrence J: Michael\n    Gabrielle Union: Kristen\n    Jerry Ferrara: Jeremy\n    Chris Brown: Alex\n    Sherri Shepherd: Vicki\n    Arielle Kebbel: Gina\n    Kelly Rowland: Brenda\n    Morris Chestnut: James\n    Michael Bennett: Avventore bar\n\n  \n[img]http://s19.postimg.org/okgi79i6r/1_trama.png[/img]. \n\nQuattro amici con una passione per il basket, hanno uno scossone quando scoprono che tutte le loro compagne hanno comperato lo stesso libro, scritto da Steve Harvey Act Like a Lady and Think Like a Man e stanno cercando di rispettarne le regole. I quattro amici cercheranno di tutto per cambiare la situazione a loro favore...................\n\n[img]http://s19.postimg.org/fzn6g380j/1_story.png[/img]\n\nFour women have given up on getting their men to do what they want until they find a how to book written by Steve Harvey. They start using his advice about relationships, and their men start falling in line, until the men discover what the women have been doing, then the war is on.........\n &lt;a href=&quot;\nhttp://extraimago.com/images/2015/04/26/vlcsnap-2015-04-26-14h28m01s75.png[/img]&quot; rel=&quot;nofollow&quot; target=&quot;_NEW&quot;&gt;\nhttp://extraimago.com/images/2015/04/26/vlcsnap-2015-04-26-14h28m01s75.png[/img]&lt;/a&gt; &lt;a href=&quot;\nhttp://extraimago.com/images/2015/04/26/vlcsnap-2015-04-26-14h28m17s242.png[/img]&quot; rel=&quot;nofollow&quot; target=&quot;_NEW&quot;&gt;\nhttp://extraimago.com/images/2015/04/26/vlcsnap-2015-04-26-14h28m17s242.png[/img]&lt;/a&gt; &lt;a href=&quot;\nhttp://extraimago.com/images/2015/04/26/vlcsnap-2015-04-26-14h28m23s37.png[/img]&quot; rel=&quot;nofollow&quot; target=&quot;_NEW&quot;&gt;\nhttp://extraimago.com/images/2015/04/26/vlcsnap-2015-04-26-14h28m23s37.png[/img]&lt;/a&gt; &lt;a href=&quot;\nhttp://extraimago.com/images/2015/04/26/vlcsnap-2015-04-26-14h28m38s188.png[/img]&quot; rel=&quot;nofollow&quot; target=&quot;_NEW&quot;&gt;\nhttp://extraimago.com/images/2015/04/26/vlcsnap-2015-04-26-14h28m38s188.png[/img]&lt;/a&gt;\n\n\n[IMG]http://img153.imageshack.us/img153/3158/restateinseedblood.gif[/img]\n\n\n[img]http://imgur.com/lvhU6.gif[/img]\n\n\n[img]http://s19.postimg.org/a2jaz9qvn/1_dati.png[/img]\n\n\n[spoiler]\nGeneral\nComplete name                            : Think Like a Man (2012).ita.eng.sub.ita.eng.MIRCrewThink Like a Man (2012).ita.eng.sub.ita.eng.MIRCrew.avi\nFormat                                   : AVI\nFormat/Info                              : Audio Video Interleave\nFile size                                : 1.78 GiB\nDuration                                 : 1h 45mn\nOverall bit rate                         : 2 410 Kbps\nMovie name                               : MIRCrew by robbyrs\nWriting application                      : VirtualDubMod 1.5.10.2 (build 2540/release)\nWriting library                          : VirtualDubMod build 2540/release\n\nVideo\nID                                       : 0\nFormat                                   : MPEG-4 Visual\nFormat profile                           : Simple@L3\nFormat settings, BVOP                    : No\nFormat settings, QPel                    : No\nFormat settings, GMC                     : No warppoints\nFormat settings, Matrix                  : Default (H.263)\nCodec ID                                 : XVID\nCodec ID/Hint                            : XviD\nDuration                                 : 1h 45mn\nBit rate                                 : 1 500 Kbps\nWidth                                    : 720 pixels\nHeight                                   : 300 pixels\nDisplay aspect ratio                     : 2.40:1\nFrame rate                               : 23.976 fps\nColor space                              : YUV\nChroma subsampling                       : 4:2:0\nBit depth                                : 8 bits\nScan type                                : Progressive\nCompression mode                         : Lossy\nBits/(Pixel*Frame)                       : 0.290\nStream size                              : 1.11 GiB (62%)\nWriting library                          : XviD 64\n\nAudio #1\nID                                       : 1\nFormat                                   : AC-3\nFormat/Info                              : Audio Coding 3\nMode extension                           : CM (complete main)\nCodec ID                                 : 2000\nDuration                                 : 1h 45mn\nBit rate mode                            : Constant\nBit rate                                 : 448 Kbps\nChannel(s)                               : 6 channels\nChannel positions                        : Front: L C R, Side: L R, LFE\nSampling rate                            : 48.0 KHz\nBit depth                                : 16 bits\nCompression mode                         : Lossy\nStream size                              : 339 MiB (19%)\nAlignment                                : Split accross interleaves\nInterleave, duration                     : 42 ms (1.00 video frame)\nInterleave, preload duration             : 500 ms\n\nAudio #2\nID                                       : 2\nFormat                                   : AC-3\nFormat/Info                              : Audio Coding 3\nMode extension                           : CM (complete main)\nCodec ID                                 : 2000\nDuration                                 : 1h 45mn\nBit rate mode                            : Constant\nBit rate                                 : 448 Kbps\nChannel(s)                               : 6 channels\nChannel positions                        : Front: L C R, Side: L R, LFE\nSampling rate                            : 48.0 KHz\nBit depth                                : 16 bits\nCompression mode                         : Lossy\nStream size                              : 339 MiB (19%)\nAlignment                                : Split accross interleaves\nInterleave, duration                     : 42 ms (1.00 video frame)\nInterleave, preload duration             : 500 ms\n\n\n[/spoiler]\n\n[/color][/b][/center]","torrent":{"xt":"urn:btih:4dcda018bd3230f38358a39953d22c0e016daeb7","amp;dn":"Think+Like+a+Man+%282012%29.BRrip.XviD+-+Italian+English.Ac3.5.1.Sub","amp;tr":["udp%3A%2F%2Ftracker.openbittorrent.com%3A80","udp%3A%2F%2Fopen.demonii.com%3A1337","udp%3A%2F%2Ftracker.coppersurfer.tk%3A6969","udp%3A%2F%2Fexodus.desync.com%3A6969"],"infoHash":"4dcda018bd3230f38358a39953d22c0e016daeb7","infoHashBuffer":{"type":"Buffer","data":[77,205,160,24,189,50,48,243,131,88,163,153,83,210,44,14,1,109,174,183]},"announce":[],"urlList":[]}}